<?xml version="1.0" encoding="UTF-8"?>
<svg id="Ebene_1" xmlns="http://www.w3.org/2000/svg" version="1.1" viewBox="0 0 200 200">
  <!-- Generator: Adobe Illustrator 30.2.1, SVG Export Plug-In . SVG Version: 2.1.1 Build 1)  -->
  <defs>
    <style>
      .st0 {
        fill: #f52690;
      }
    </style>
  </defs>
  <circle class="st0" cx="100" cy="100" r="100"/>
  <path d="M117.9,34c8.8,0,16.3,1.3,22.5,3.8,6.2,2.6,11.2,6,15.1,10.2,3.9,4.2,6.7,9,8.5,14.4,1.8,5.4,2.7,11,2.7,16.8s-.9,11.2-2.7,16.7c-1.8,5.5-4.6,10.3-8.5,14.5-3.9,4.2-8.9,7.6-15.1,10.2-6.2,2.6-13.7,3.8-22.5,3.8h-32.5v50.5h-31V34h63.5ZM109.4,100.3c3.6,0,7-.3,10.3-.8,3.3-.5,6.2-1.5,8.7-3.1,2.5-1.5,4.5-3.6,6-6.4,1.5-2.8,2.3-6.4,2.3-10.8s-.8-8.1-2.3-10.8c-1.5-2.8-3.5-4.9-6-6.4-2.5-1.5-5.4-2.5-8.7-3.1-3.3-.5-6.7-.8-10.3-.8h-24.1v42.2h24.1Z"/>
</svg>
