<?xml version="1.0" encoding="UTF-8"?>
<svg id="Ebene_1" xmlns="http://www.w3.org/2000/svg" version="1.1" viewBox="0 0 200 200">
  <!-- Generator: Adobe Illustrator 30.2.1, SVG Export Plug-In . SVG Version: 2.1.1 Build 1)  -->
  <defs>
    <style>
      .st0 {
        fill: #f52690;
      }
    </style>
  </defs>
  <path class="st0" d="M120.6,71.1c-2-1.2-4.2-2-6.8-2.4-2.6-.4-5.2-.6-8.1-.6h-18.9v33h18.9c2.8,0,5.5-.2,8.1-.6s4.9-1.2,6.8-2.4c2-1.2,3.5-2.8,4.7-5s1.8-5,1.8-8.5-.6-6.3-1.8-8.5c-1.2-2.2-2.7-3.8-4.7-5Z"/>
  <path class="st0" d="M100,0C44.8,0,0,44.8,0,100s44.8,100,100,100,100-44.8,100-100S155.2,0,100,0ZM148.5,97.6c-1.4,4.3-3.6,8.1-6.7,11.3-3.1,3.3-7,5.9-11.8,8-4.9,2-10.7,3-17.6,3h-25.4v39.5h-24.3V49.2h49.7c6.9,0,12.8,1,17.6,3,4.9,2,8.8,4.7,11.8,8,3.1,3.3,5.2,7,6.7,11.3,1.4,4.2,2.1,8.6,2.1,13.1s-.7,8.8-2.1,13.1Z"/>
</svg>